<svg width="543" height="101" fill="none" xmlns="http://www.w3.org/2000/svg"><g clip-path="url(#prefix__clip0_899_57)"><rect x="8" y="1" width="246" height="99" rx="8" fill="url(#prefix__paint0_linear_899_57)"/><path d="M8 9a8 8 0 018-8h230a8 8 0 018 8v26H8V9z" fill="#000" fill-opacity=".43"/><path d="M93.012 21.28a1.88 1.88 0 00-.118-.684 1.291 1.291 0 00-.41-.567c-.201-.175-.485-.348-.85-.517-.364-.17-.836-.345-1.415-.528a17.91 17.91 0 01-1.836-.703 7.54 7.54 0 01-1.524-.908 4.091 4.091 0 01-1.035-1.22c-.247-.463-.37-1-.37-1.612 0-.592.13-1.13.39-1.611.26-.489.625-.905 1.094-1.25a5.193 5.193 0 011.66-.81 7.516 7.516 0 012.119-.284c1.048 0 1.963.189 2.744.566.781.378 1.387.896 1.816 1.553.436.658.655 1.41.655 2.256h-2.91c0-.417-.088-.781-.264-1.094-.17-.319-.43-.57-.781-.752-.346-.182-.782-.273-1.309-.273-.508 0-.931.078-1.27.234-.338.15-.592.355-.761.615-.17.254-.254.54-.254.86 0 .24.058.459.176.654.123.195.306.378.547.547.24.17.537.329.888.478.352.15.759.297 1.22.44.776.234 1.456.498 2.042.79.592.294 1.087.623 1.484.987.397.365.697.778.899 1.24.202.463.302.987.302 1.573 0 .618-.12 1.172-.36 1.66-.242.488-.59.902-1.046 1.24-.456.339-1 .596-1.63.772-.632.175-1.339.263-2.12.263a8.039 8.039 0 01-2.08-.273 6.318 6.318 0 01-1.865-.85 4.284 4.284 0 01-1.328-1.445c-.332-.586-.498-1.28-.498-2.08h2.94c0 .443.068.817.204 1.123.137.306.329.553.576.742.254.189.554.326.899.41.351.085.736.127 1.152.127.508 0 .925-.071 1.25-.215.332-.143.576-.341.733-.595.162-.254.244-.54.244-.86zm10.996 1.19v-8.036h2.812V25h-2.646l-.166-2.53zm.312-2.167l.83-.02a7.53 7.53 0 01-.244 1.963 4.694 4.694 0 01-.732 1.563 3.426 3.426 0 01-1.231 1.025c-.494.24-1.077.361-1.748.361-.514 0-.989-.071-1.425-.215-.43-.15-.801-.38-1.114-.693-.306-.319-.547-.726-.722-1.22-.17-.502-.254-1.104-.254-1.807v-6.826h2.812v6.845c0 .313.036.576.108.791.078.215.185.39.322.528.137.136.296.234.478.293.189.058.398.088.625.088.58 0 1.036-.118 1.368-.352.338-.234.576-.553.712-.957.144-.41.215-.866.215-1.367zm7.461-3.682V25h-2.822V14.434h2.646l.176 2.187zm-.39 2.725h-.782c0-.736.088-1.413.264-2.032a4.95 4.95 0 01.791-1.62 3.64 3.64 0 011.299-1.075c.514-.254 1.11-.38 1.787-.38.469 0 .898.07 1.289.214.391.137.726.355 1.006.654.286.293.508.678.664 1.153.156.468.234 1.032.234 1.69V25h-2.812v-6.738c0-.482-.065-.853-.195-1.114a1.111 1.111 0 00-.557-.546 2.085 2.085 0 00-.85-.157c-.364 0-.683.075-.957.225-.267.15-.488.358-.664.625-.176.26-.306.566-.39.918-.085.351-.127.73-.127 1.133zm6.289-.323l-1.006.127c0-.69.084-1.331.254-1.923a4.885 4.885 0 01.771-1.563c.345-.45.772-.797 1.28-1.045.507-.254 1.093-.38 1.757-.38.508 0 .97.074 1.387.224.417.143.772.374 1.065.693.299.313.527.723.683 1.23.163.509.244 1.13.244 1.866V25h-2.822v-6.748c0-.488-.065-.86-.195-1.113a1.025 1.025 0 00-.547-.537 2.061 2.061 0 00-.84-.157c-.339 0-.635.069-.889.205-.254.13-.465.313-.634.547-.17.235-.297.508-.381.82a3.75 3.75 0 00-.127 1.006zm25.341-8.242V25h-2.929l-5.713-9.531V25h-2.93V10.781h2.93l5.723 9.541v-9.54h2.919zm1.924 9.043v-.205c0-.775.111-1.488.332-2.139a4.962 4.962 0 01.967-1.709 4.329 4.329 0 011.563-1.123c.618-.273 1.328-.41 2.129-.41.8 0 1.513.137 2.138.41a4.312 4.312 0 011.572 1.123c.43.482.756 1.052.977 1.71.221.65.332 1.363.332 2.138v.205c0 .768-.111 1.481-.332 2.139a4.975 4.975 0 01-.977 1.709 4.333 4.333 0 01-1.562 1.123c-.619.267-1.328.4-2.129.4-.801 0-1.514-.133-2.139-.4a4.432 4.432 0 01-1.572-1.123 5.086 5.086 0 01-.967-1.71 6.674 6.674 0 01-.332-2.138zm2.813-.205v.205c0 .443.039.856.117 1.24.078.385.202.723.371 1.016.176.287.404.511.684.674.28.163.621.244 1.025.244.391 0 .726-.081 1.006-.244.28-.163.504-.388.674-.674.169-.293.293-.631.371-1.015a5.8 5.8 0 00.127-1.24v-.206c0-.43-.043-.833-.127-1.21a3.188 3.188 0 00-.381-1.016 1.888 1.888 0 00-.674-.704c-.28-.169-.618-.253-1.015-.253-.398 0-.736.084-1.016.253-.274.17-.498.404-.674.704a3.355 3.355 0 00-.371 1.015 5.98 5.98 0 00-.117 1.211zm15.166 3.076V10h2.832v15h-2.549l-.283-2.305zm-6.68-2.851v-.205c0-.808.091-1.54.274-2.198.182-.664.449-1.233.8-1.709a3.656 3.656 0 011.299-1.103c.515-.26 1.1-.39 1.758-.39.618 0 1.159.13 1.621.39.469.26.866.631 1.192 1.113.332.475.598 1.039.8 1.69.202.644.349 1.35.44 2.119V20c-.091.736-.238 1.42-.44 2.05a6.148 6.148 0 01-.8 1.66 3.532 3.532 0 01-1.192 1.095c-.469.26-1.016.39-1.641.39-.657 0-1.243-.133-1.757-.4a3.724 3.724 0 01-1.289-1.123 5.378 5.378 0 01-.791-1.7 7.846 7.846 0 01-.274-2.128zm2.813-.205v.205c0 .436.032.843.097 1.22.072.378.186.713.342 1.006.163.287.371.511.625.674.261.156.576.235.947.235.482 0 .879-.108 1.192-.323a2.08 2.08 0 00.713-.908c.169-.384.267-.827.293-1.328v-1.28a4.613 4.613 0 00-.176-1.103 2.405 2.405 0 00-.41-.85 1.81 1.81 0 00-.664-.546 2.056 2.056 0 00-.928-.196c-.365 0-.677.085-.938.254-.26.163-.472.388-.634.674a3.553 3.553 0 00-.352 1.016c-.072.384-.107.8-.107 1.25zm13.759 5.556c-.82 0-1.556-.13-2.207-.39a4.849 4.849 0 01-1.66-1.104 4.91 4.91 0 01-1.035-1.63 5.489 5.489 0 01-.361-1.993v-.39c0-.801.114-1.534.342-2.198.227-.664.553-1.24.976-1.728.43-.489.951-.863 1.563-1.123.612-.267 1.302-.4 2.07-.4.749 0 1.413.123 1.992.37.58.248 1.065.6 1.455 1.055.397.456.697 1.003.899 1.64.201.632.302 1.335.302 2.11v1.172h-8.398V18.71h5.635v-.215c0-.39-.072-.739-.215-1.045a1.66 1.66 0 00-.625-.742c-.28-.182-.638-.273-1.074-.273-.371 0-.69.08-.957.244-.267.162-.485.39-.655.683a3.755 3.755 0 00-.371 1.035c-.078.391-.117.82-.117 1.29v.39c0 .423.059.814.176 1.172.123.358.296.667.517.928.228.26.502.462.821.605a2.71 2.71 0 001.103.215c.508 0 .98-.098 1.416-.293a3.065 3.065 0 001.143-.908l1.367 1.484c-.221.32-.524.625-.908.918a4.865 4.865 0 01-1.367.723c-.534.182-1.143.273-1.827.273zM26.763 55.183V61h-1.97v-7.397h1.847l.123 1.58zm-.287 1.859h-.534c0-.547.071-1.04.212-1.477.142-.442.34-.818.595-1.127.255-.315.558-.554.91-.718a2.741 2.741 0 011.189-.253c.346 0 .663.05.95.15.287.1.533.26.738.479.21.219.37.508.479.868.114.36.17.8.17 1.32V61h-1.982v-4.724c0-.328-.045-.583-.137-.765a.768.768 0 00-.403-.383 1.574 1.574 0 00-.643-.116c-.264 0-.494.052-.69.157-.191.105-.35.25-.478.437a2.064 2.064 0 00-.28.643c-.064.246-.096.51-.096.793zm10.582 2.188v-5.627h1.968V61h-1.852l-.116-1.77zm.218-1.518l.581-.014c0 .492-.056.95-.17 1.374-.114.42-.285.784-.513 1.094a2.394 2.394 0 01-.861.718c-.347.168-.755.253-1.224.253-.36 0-.693-.05-.998-.15-.301-.105-.56-.267-.78-.486a2.35 2.35 0 01-.505-.854c-.119-.351-.178-.773-.178-1.265v-4.779h1.969v4.792c0 .22.025.404.075.554.055.15.13.274.226.37a.824.824 0 00.334.204c.133.041.278.062.438.062.405 0 .724-.082.957-.246.237-.164.403-.387.499-.67.1-.287.15-.606.15-.957zm5.223-2.577V61h-1.976v-7.397h1.853l.123 1.532zm-.273 1.907h-.547c0-.515.061-.989.184-1.422.128-.437.313-.816.554-1.135.246-.323.55-.574.91-.752.36-.177.776-.266 1.25-.266.328 0 .63.05.903.15.273.096.508.249.704.458.2.205.355.474.464.807.11.328.164.722.164 1.183V61h-1.968v-4.717c0-.337-.046-.597-.137-.78a.776.776 0 00-.39-.382 1.46 1.46 0 00-.594-.11c-.256 0-.479.053-.67.158-.187.105-.342.25-.465.437a1.954 1.954 0 00-.273.643c-.06.246-.09.51-.09.793zm4.402-.226l-.704.09c0-.484.06-.933.178-1.347a3.41 3.41 0 01.54-1.094 2.49 2.49 0 01.895-.732 2.717 2.717 0 011.23-.266c.356 0 .68.052.971.157.292.1.54.262.745.485.21.22.37.506.479.862.114.355.17.79.17 1.305V61h-1.975v-4.724c0-.341-.045-.601-.136-.779a.717.717 0 00-.383-.376 1.44 1.44 0 00-.588-.11c-.237 0-.444.049-.622.144a1.238 1.238 0 00-.445.383 1.752 1.752 0 00-.266.574c-.06.215-.09.45-.09.704zm12.646-1.668v1.723c0 .747-.08 1.392-.239 1.935-.16.537-.39.98-.69 1.326-.297.342-.65.595-1.06.759a3.65 3.65 0 01-1.367.246c-.401 0-.775-.05-1.121-.15a2.82 2.82 0 01-.937-.486 3.082 3.082 0 01-.71-.827 4.246 4.246 0 01-.452-1.203 7.315 7.315 0 01-.157-1.6v-1.723c0-.747.08-1.387.24-1.92.163-.538.394-.978.69-1.32.3-.342.656-.592 1.066-.752.41-.164.866-.246 1.367-.246.401 0 .773.053 1.115.157.346.1.658.258.936.472.278.214.515.49.711.827.196.333.346.732.451 1.197.105.46.157.988.157 1.585zM57.3 57.131v-2.25c0-.36-.02-.674-.062-.943a2.769 2.769 0 00-.17-.683 1.445 1.445 0 00-.288-.465 1.045 1.045 0 00-.39-.26 1.372 1.372 0 00-.485-.082c-.223 0-.421.044-.594.13a1.106 1.106 0 00-.431.417c-.119.187-.21.438-.273.752-.06.31-.09.688-.09 1.135v2.249c0 .36.019.677.055.95.041.273.1.508.178.704.082.192.178.349.287.472.114.118.244.205.39.26.15.054.314.082.492.082.219 0 .412-.044.581-.13.173-.091.319-.233.438-.424.123-.196.214-.451.273-.766.06-.314.089-.697.089-1.148z" fill="#fff"/><circle cx="8" cy="56" r="8" fill="#33AF58"/><circle cx="8" cy="56" r="7.5" stroke="#000" stroke-opacity=".4"/><path d="M26.763 79.183V85h-1.97v-7.397h1.847l.123 1.58zm-.287 1.859h-.534c0-.547.071-1.04.212-1.477.142-.442.34-.818.595-1.127.255-.315.558-.554.91-.718a2.741 2.741 0 011.189-.253c.346 0 .663.05.95.15.287.1.533.26.738.479.21.218.37.508.479.868.114.36.17.8.17 1.32V85h-1.982v-4.724c0-.328-.045-.583-.137-.765a.768.768 0 00-.403-.383 1.574 1.574 0 00-.643-.116c-.264 0-.494.052-.69.157-.191.105-.35.25-.478.437a2.064 2.064 0 00-.28.643c-.064.246-.096.51-.096.793zm10.582 2.188v-5.627h1.968V85h-1.852l-.116-1.77zm.218-1.518l.581-.014c0 .492-.056.95-.17 1.374-.114.42-.285.784-.513 1.094a2.394 2.394 0 01-.861.718c-.347.168-.755.253-1.224.253-.36 0-.693-.05-.998-.15-.301-.105-.56-.267-.78-.486a2.35 2.35 0 01-.505-.855c-.119-.35-.178-.772-.178-1.264v-4.779h1.969v4.793c0 .218.025.403.075.553.055.15.13.274.226.37a.824.824 0 00.334.204c.133.041.278.062.438.062.405 0 .724-.082.957-.246.237-.164.403-.388.499-.67.1-.287.15-.606.15-.957zm5.223-2.577V85h-1.976v-7.397h1.853l.123 1.532zm-.273 1.907h-.547c0-.515.061-.989.184-1.422.128-.437.313-.816.554-1.135.246-.323.55-.574.91-.752.36-.177.776-.266 1.25-.266.328 0 .63.05.903.15.273.096.508.249.704.458.2.205.355.474.464.807.11.328.164.722.164 1.182V85h-1.968v-4.717c0-.337-.046-.597-.137-.78a.776.776 0 00-.39-.382 1.46 1.46 0 00-.594-.11c-.256 0-.479.053-.67.158-.187.105-.342.25-.465.437a1.954 1.954 0 00-.273.643c-.06.246-.09.51-.09.793zm4.402-.226l-.704.09c0-.484.06-.933.178-1.347a3.41 3.41 0 01.54-1.094 2.49 2.49 0 01.895-.732 2.717 2.717 0 011.23-.266c.356 0 .68.052.971.157.292.1.54.262.745.485.21.22.37.506.479.862.114.355.17.79.17 1.305V85h-1.975v-4.724c0-.341-.045-.601-.136-.779a.717.717 0 00-.383-.376 1.44 1.44 0 00-.588-.11c-.237 0-.444.049-.622.144a1.238 1.238 0 00-.445.383 1.752 1.752 0 00-.266.574c-.06.215-.09.45-.09.704zm10.746-5.79V85h-1.969v-7.704l-2.365.752v-1.552l4.122-1.47h.212z" fill="#fff"/><circle cx="8" cy="80" r="8" fill="#33AF58"/><circle cx="8" cy="80" r="7.5" stroke="#000" stroke-opacity=".4"/><path d="M204.215 67.217V73h-1.969v-7.397h1.853l.116 1.614zm2.228-1.661l-.034 1.825a4.768 4.768 0 00-.348-.034 3.553 3.553 0 00-.363-.02 2.16 2.16 0 00-.724.109c-.201.068-.37.17-.506.307a1.34 1.34 0 00-.301.5c-.064.195-.1.419-.109.67l-.397-.124c0-.478.048-.918.144-1.32.095-.405.234-.758.417-1.059.187-.3.414-.533.683-.697.269-.164.577-.246.923-.246.11 0 .221.009.335.027.114.014.207.034.28.062zm4.198 7.58c-.575 0-1.09-.09-1.545-.273a3.39 3.39 0 01-1.162-.772 3.43 3.43 0 01-.725-1.142 3.836 3.836 0 01-.253-1.394v-.274c0-.56.08-1.073.239-1.538a3.63 3.63 0 01.684-1.21 3 3 0 011.094-.786c.428-.187.911-.28 1.449-.28.524 0 .989.086 1.394.26.406.173.746.419 1.019.738.278.319.488.702.629 1.148.141.442.212.934.212 1.477v.82h-5.879v-1.312h3.944v-.15c0-.274-.05-.518-.15-.732a1.164 1.164 0 00-.438-.52c-.196-.127-.446-.191-.752-.191-.259 0-.483.057-.67.17a1.332 1.332 0 00-.458.48c-.113.204-.2.446-.259.724a4.585 4.585 0 00-.082.902v.274c0 .296.041.57.123.82.086.25.207.467.362.65.159.182.351.323.574.423.228.1.486.15.773.15.355 0 .686-.068.991-.204.31-.142.576-.354.8-.636l.957 1.039a2.913 2.913 0 01-.636.642 3.387 3.387 0 01-.957.506c-.374.128-.8.192-1.278.192zm8.155-2.18a.64.64 0 00-.123-.383c-.082-.114-.235-.218-.458-.314-.219-.1-.536-.192-.95-.274a7.38 7.38 0 01-1.046-.307 3.626 3.626 0 01-.834-.458 1.982 1.982 0 01-.547-.63 1.75 1.75 0 01-.198-.84c0-.31.066-.602.198-.875.137-.273.33-.515.581-.725.255-.214.565-.38.93-.499a3.915 3.915 0 011.244-.184c.642 0 1.194.102 1.654.307.465.206.82.488 1.066.848.251.356.376.761.376 1.217h-1.968c0-.192-.041-.362-.123-.513a.817.817 0 00-.369-.362c-.165-.091-.379-.137-.643-.137-.219 0-.408.039-.567.116a.872.872 0 00-.37.301.724.724 0 00-.123.41c0 .114.023.217.069.308.05.087.13.166.239.24.109.072.251.14.424.204.178.06.396.114.656.164a7.55 7.55 0 011.429.431c.419.173.752.41.998.71.246.297.369.687.369 1.17 0 .328-.073.629-.219.902a2.174 2.174 0 01-.629.718 3.18 3.18 0 01-.984.472 4.6 4.6 0 01-1.278.164c-.689 0-1.272-.123-1.75-.37-.474-.245-.834-.558-1.08-.936-.242-.383-.363-.775-.363-1.176h1.866c.01.27.078.486.206.65.132.164.298.282.499.355.205.073.426.11.663.11.255 0 .467-.035.635-.103a.898.898 0 00.383-.287.694.694 0 00.137-.424zm7.567.273v-5.626h1.969V73h-1.853l-.116-1.77zm.219-1.517l.581-.014c0 .492-.057.95-.171 1.374-.114.42-.285.784-.513 1.094a2.381 2.381 0 01-.861.718c-.346.168-.754.253-1.223.253-.36 0-.693-.05-.999-.15-.3-.105-.56-.267-.779-.486a2.354 2.354 0 01-.506-.855c-.118-.35-.177-.772-.177-1.264v-4.779h1.968v4.793c0 .218.025.403.076.553.054.15.129.274.225.37a.823.823 0 00.335.204c.132.041.278.062.438.062.405 0 .724-.082.957-.246a1.3 1.3 0 00.499-.67c.1-.287.15-.606.15-.957zm5.332-7.212V73h-1.976V62.5h1.976zm5.25 3.103v1.395h-4.307v-1.395h4.307zm-3.24-1.825h1.969v6.994c0 .214.027.378.082.492a.49.49 0 00.259.239c.114.04.258.061.431.061.123 0 .232-.004.328-.013.1-.014.185-.028.253-.041l.007 1.449a3.71 3.71 0 01-.547.13 4.052 4.052 0 01-.649.048c-.433 0-.812-.07-1.135-.212a1.562 1.562 0 01-.738-.697c-.174-.32-.26-.739-.26-1.258v-7.192z" fill="#fff"/><circle cx="254" cy="68" r="8" fill="#33AF58"/><circle cx="254" cy="68" r="7.5" stroke="#000" stroke-opacity=".4"/><rect x="289" width="246" height="101" rx="8" fill="url(#prefix__paint1_linear_899_57)"/><path d="M289 8a8 8 0 018-8h230a8 8 0 018 8v26H289V8z" fill="#000" fill-opacity=".43"/><path d="M347.762 9.781V24h-2.93l-5.713-9.531V24h-2.93V9.781h2.93l5.723 9.541v-9.54h2.92zm8.623 11.69v-8.037h2.812V24h-2.646l-.166-2.53zm.312-2.168l.83-.02a7.53 7.53 0 01-.244 1.963 4.694 4.694 0 01-.732 1.563 3.426 3.426 0 01-1.231 1.025c-.494.24-1.077.361-1.748.361-.514 0-.989-.071-1.426-.215-.429-.15-.8-.38-1.113-.693-.306-.319-.547-.726-.722-1.22-.17-.502-.254-1.104-.254-1.807v-6.826h2.812v6.845c0 .313.036.576.108.791.078.215.185.39.322.528.137.136.296.234.478.293.189.058.397.088.625.088.58 0 1.036-.118 1.368-.352.338-.234.576-.553.712-.957.144-.41.215-.866.215-1.367zm7.461-3.682V24h-2.822V13.434h2.646l.176 2.187zm-.39 2.725h-.782c0-.736.088-1.413.264-2.032a4.95 4.95 0 01.791-1.62 3.64 3.64 0 011.299-1.075c.514-.254 1.11-.38 1.787-.38.469 0 .898.07 1.289.214.391.137.726.355 1.006.654.286.293.508.678.664 1.153.156.469.234 1.032.234 1.69V24h-2.812v-6.738c0-.482-.065-.853-.196-1.114a1.106 1.106 0 00-.556-.546 2.088 2.088 0 00-.85-.157c-.364 0-.683.075-.957.225-.267.15-.488.358-.664.625-.176.26-.306.566-.39.918-.085.351-.127.73-.127 1.133zm6.289-.323l-1.006.127c0-.69.084-1.331.254-1.923a4.865 4.865 0 01.771-1.563c.345-.45.772-.797 1.279-1.045.508-.254 1.094-.38 1.758-.38.508 0 .97.074 1.387.224a2.54 2.54 0 011.064.693c.3.313.528.723.684 1.23.163.509.244 1.13.244 1.866V24h-2.822v-6.748c0-.488-.065-.86-.195-1.113a1.025 1.025 0 00-.547-.537 2.061 2.061 0 00-.84-.157c-.339 0-.635.069-.889.205-.254.13-.465.313-.635.547a2.495 2.495 0 00-.38.82 3.75 3.75 0 00-.127 1.006zM378.67 9h2.812v12.578L381.199 24h-2.529V9zm9.502 9.61v.204a8.7 8.7 0 01-.254 2.168 4.946 4.946 0 01-.762 1.71 3.647 3.647 0 01-1.289 1.113c-.508.26-1.107.39-1.797.39-.644 0-1.204-.13-1.679-.39a3.408 3.408 0 01-1.182-1.104 6.261 6.261 0 01-.771-1.67 12.673 12.673 0 01-.44-2.09v-.449c.098-.755.244-1.452.44-2.09a6.262 6.262 0 01.771-1.67 3.408 3.408 0 011.182-1.103c.468-.26 1.022-.39 1.66-.39.696 0 1.302.133 1.816.4.521.26.951.631 1.289 1.113.345.475.599 1.042.762 1.7.169.65.254 1.37.254 2.157zm-2.813.204v-.205c0-.43-.032-.833-.097-1.21a3.205 3.205 0 00-.313-1.006 1.772 1.772 0 00-.615-.694c-.254-.17-.583-.254-.986-.254-.384 0-.71.065-.977.196a1.81 1.81 0 00-.664.546 2.501 2.501 0 00-.381.84 5.14 5.14 0 00-.156 1.055v1.28c.019.514.104.97.254 1.367.156.39.39.7.703.927.319.222.732.332 1.24.332.397 0 .726-.078.987-.234.26-.156.462-.378.605-.664a3.18 3.18 0 00.312-1.006 8.52 8.52 0 00.088-1.27zm9.424 5.381c-.82 0-1.556-.13-2.207-.39a4.849 4.849 0 01-1.66-1.104 4.91 4.91 0 01-1.035-1.63 5.489 5.489 0 01-.361-1.993v-.39c0-.801.113-1.534.341-2.198.228-.664.554-1.24.977-1.728a4.29 4.29 0 011.562-1.123c.612-.267 1.302-.4 2.071-.4.748 0 1.412.123 1.992.37a3.91 3.91 0 011.455 1.055 4.54 4.54 0 01.898 1.64c.202.632.303 1.335.303 2.11v1.172h-8.398V17.71h5.634v-.215c0-.39-.071-.739-.214-1.045a1.66 1.66 0 00-.625-.742c-.28-.182-.638-.274-1.075-.274-.371 0-.69.082-.957.245-.267.162-.485.39-.654.683a3.723 3.723 0 00-.371 1.035c-.078.391-.117.82-.117 1.29v.39c0 .423.058.814.176 1.172.123.358.296.667.517.928.228.26.501.462.82.605.326.143.694.215 1.104.215.508 0 .98-.098 1.416-.293a3.065 3.065 0 001.143-.908l1.367 1.484c-.222.32-.524.625-.908.918a4.858 4.858 0 01-1.368.723c-.533.182-1.142.273-1.826.273zm8.75-8.457V24h-2.812V13.434h2.646l.166 2.304zm3.184-2.373l-.049 2.608a6.773 6.773 0 00-.498-.05 5.072 5.072 0 00-.518-.028 3.09 3.09 0 00-1.035.156 1.844 1.844 0 00-.722.44 1.908 1.908 0 00-.43.712c-.091.28-.143.6-.156.957l-.567-.176c0-.683.069-1.312.205-1.884.137-.58.336-1.084.596-1.514.267-.43.592-.762.977-.996a2.479 2.479 0 011.318-.352c.156 0 .316.013.478.04.163.019.297.048.401.087zm11.484.069v1.992h-6.152v-1.992h6.152zm-4.629-2.608h2.813v9.99c0 .306.039.54.117.704a.703.703 0 00.371.341c.163.059.368.088.615.088.176 0 .332-.006.469-.02.143-.019.264-.038.361-.058l.01 2.07a5.29 5.29 0 01-.781.186c-.28.046-.589.068-.928.068-.618 0-1.159-.1-1.621-.302a2.236 2.236 0 01-1.055-.997c-.247-.455-.371-1.054-.371-1.796V10.826zm5.528 7.998v-.205c0-.775.11-1.488.332-2.139a4.944 4.944 0 01.966-1.709 4.337 4.337 0 011.563-1.123c.618-.273 1.328-.41 2.129-.41.801 0 1.514.137 2.139.41a4.312 4.312 0 011.572 1.123 4.87 4.87 0 01.976 1.71 6.59 6.59 0 01.332 2.138v.205c0 .768-.11 1.481-.332 2.139a4.989 4.989 0 01-.976 1.709 4.329 4.329 0 01-1.563 1.123c-.618.267-1.328.4-2.129.4-.8 0-1.513-.133-2.138-.4a4.427 4.427 0 01-1.573-1.123 5.066 5.066 0 01-.966-1.71 6.647 6.647 0 01-.332-2.138zm2.812-.205v.205c0 .443.039.856.117 1.24.078.385.202.723.371 1.016.176.287.404.511.684.674.28.163.622.244 1.025.244.391 0 .726-.081 1.006-.244.28-.163.505-.388.674-.674.169-.293.293-.631.371-1.015.085-.385.127-.798.127-1.24v-.206c0-.43-.042-.833-.127-1.21a3.188 3.188 0 00-.381-1.016 1.888 1.888 0 00-.674-.704c-.279-.169-.618-.254-1.015-.254-.397 0-.736.085-1.016.255-.273.169-.498.403-.674.703a3.355 3.355 0 00-.371 1.015 5.98 5.98 0 00-.117 1.211zm21.484 1.66c0-.254-.039-.482-.117-.683a1.285 1.285 0 00-.41-.567c-.202-.175-.485-.348-.849-.517-.365-.17-.837-.345-1.416-.528a17.84 17.84 0 01-1.836-.703 7.55 7.55 0 01-1.524-.908 4.095 4.095 0 01-1.035-1.22c-.247-.463-.371-1-.371-1.612 0-.592.13-1.13.391-1.611a3.71 3.71 0 011.093-1.25 5.195 5.195 0 011.66-.81 7.52 7.52 0 012.12-.284c1.048 0 1.962.189 2.744.566.781.378 1.386.896 1.816 1.553.436.658.654 1.41.654 2.256h-2.91c0-.417-.088-.781-.263-1.094-.17-.319-.43-.57-.782-.752-.345-.182-.781-.273-1.308-.273-.508 0-.931.078-1.27.234-.338.15-.592.355-.762.615-.169.254-.253.54-.253.86 0 .24.058.459.175.654.124.195.306.378.547.547.241.17.537.329.889.478.351.15.758.297 1.221.44.774.234 1.455.498 2.041.79.592.294 1.087.623 1.484.987.397.365.697.778.898 1.24.202.463.303.987.303 1.573 0 .618-.12 1.172-.361 1.66a3.41 3.41 0 01-1.045 1.24 4.914 4.914 0 01-1.631.772c-.631.175-1.338.263-2.119.263a8.036 8.036 0 01-2.08-.273 6.313 6.313 0 01-1.865-.85 4.289 4.289 0 01-1.329-1.445c-.332-.586-.498-1.28-.498-2.08h2.94c0 .443.068.817.205 1.123.137.306.329.553.576.742.254.189.554.326.899.41.351.085.735.127 1.152.127.508 0 .924-.071 1.25-.215.332-.143.576-.341.732-.595.163-.254.244-.54.244-.86zm9.922-6.845v1.992h-6.152v-1.992h6.152zm-4.629-2.608h2.813v9.99c0 .306.039.54.117.704a.703.703 0 00.371.341c.163.059.368.088.615.088.176 0 .333-.006.469-.02.143-.019.264-.038.362-.058l.009 2.07a5.29 5.29 0 01-.781.186c-.28.046-.589.068-.928.068-.618 0-1.159-.1-1.621-.302a2.233 2.233 0 01-1.054-.997c-.248-.455-.372-1.054-.372-1.796V10.826zm9.043 4.912V24h-2.812V13.434h2.646l.166 2.304zm3.184-2.373l-.049 2.608a6.773 6.773 0 00-.498-.05 5.07 5.07 0 00-.517-.028c-.398 0-.743.052-1.036.156a1.844 1.844 0 00-.722.44 1.922 1.922 0 00-.43.712c-.091.28-.143.6-.156.957l-.567-.176c0-.683.069-1.312.205-1.884.137-.58.336-1.084.596-1.514.267-.43.593-.762.977-.996a2.479 2.479 0 011.318-.352c.156 0 .316.013.479.04.162.019.296.048.4.087zm4.297.069V24h-2.822V13.434h2.822zm-2.998-2.754c0-.41.143-.749.43-1.016.286-.267.67-.4 1.152-.4.475 0 .856.133 1.142.4.293.267.44.606.44 1.016 0 .41-.147.748-.44 1.015-.286.267-.667.4-1.142.4-.482 0-.866-.133-1.152-.4a1.326 1.326 0 01-.43-1.015zm8.076 5.01V24h-2.812V13.434h2.636l.176 2.256zm-.41 2.656h-.762c0-.782.101-1.485.303-2.11.202-.631.485-1.168.849-1.611.365-.45.798-.791 1.299-1.025a3.919 3.919 0 011.7-.362c.494 0 .947.072 1.357.215a2.6 2.6 0 011.055.684c.299.312.527.726.683 1.24.163.514.244 1.143.244 1.885V24h-2.832v-6.748c0-.469-.065-.833-.195-1.094a1.096 1.096 0 00-.576-.547c-.248-.11-.554-.166-.918-.166a2.06 2.06 0 00-.986.225c-.274.15-.502.358-.684.625a2.94 2.94 0 00-.4.918c-.092.351-.137.73-.137 1.133zm15.557-4.912h2.548v10.214c0 .964-.215 1.781-.644 2.452a3.973 3.973 0 01-1.778 1.533c-.761.351-1.647.527-2.656.527-.443 0-.911-.058-1.406-.176a5.625 5.625 0 01-1.406-.547 3.722 3.722 0 01-1.114-.937l1.241-1.66c.325.377.703.67 1.132.879.43.215.905.322 1.426.322.508 0 .938-.094 1.289-.283.352-.182.622-.453.811-.81.189-.352.283-.779.283-1.28v-7.793l.274-2.441zm-7.11 5.41v-.205c0-.808.098-1.54.293-2.198.202-.664.485-1.233.85-1.709.371-.475.82-.843 1.347-1.103.528-.26 1.123-.39 1.787-.39.704 0 1.293.13 1.768.39.475.26.866.631 1.172 1.113.306.475.544 1.039.713 1.69.176.644.312 1.35.41 2.119V19c-.098.736-.244 1.42-.439 2.05a6.322 6.322 0 01-.772 1.66 3.413 3.413 0 01-1.191 1.095c-.469.26-1.029.39-1.68.39s-1.24-.133-1.768-.4a3.965 3.965 0 01-1.338-1.123 5.358 5.358 0 01-.859-1.7 7.392 7.392 0 01-.293-2.128zm2.813-.205v.205c0 .436.042.843.127 1.22.084.378.214.713.39 1.006.182.287.407.511.674.674.273.156.596.235.967.235.514 0 .934-.108 1.26-.323.325-.221.569-.524.732-.908.163-.384.257-.827.283-1.328v-1.28a4.304 4.304 0 00-.166-1.103 2.629 2.629 0 00-.41-.85 1.774 1.774 0 00-.684-.546c-.279-.13-.612-.196-.996-.196-.371 0-.693.085-.966.254a2.08 2.08 0 00-.674.674c-.176.287-.31.625-.401 1.016-.091.384-.136.8-.136 1.25zM308.001 66.683V72.5h-1.969v-7.397h1.846l.123 1.58zm-.287 1.859h-.533c0-.547.07-1.04.212-1.477a3.36 3.36 0 01.594-1.127 2.57 2.57 0 01.909-.718 2.743 2.743 0 011.19-.253c.346 0 .663.05.95.15.287.1.533.26.738.479.21.218.37.508.479.868.114.36.171.8.171 1.32V72.5h-1.983v-4.724c0-.328-.045-.583-.136-.765a.768.768 0 00-.404-.383 1.571 1.571 0 00-.642-.116c-.265 0-.495.052-.691.157a1.37 1.37 0 00-.478.437 2.047 2.047 0 00-.28.643c-.064.246-.096.51-.096.793zm10.582 2.188v-5.627h1.969V72.5h-1.853l-.116-1.77zm.219-1.518l.581-.014c0 .492-.057.95-.171 1.374-.114.42-.285.784-.513 1.094a2.398 2.398 0 01-.861.718c-.347.168-.754.253-1.224.253-.36 0-.693-.05-.998-.15a2.031 2.031 0 01-.779-.486 2.354 2.354 0 01-.506-.855c-.119-.35-.178-.772-.178-1.264v-4.779h1.969v4.793c0 .218.025.403.075.553.055.15.13.274.226.37a.817.817 0 00.335.204c.132.041.278.062.437.062.406 0 .725-.082.957-.246.237-.164.404-.388.499-.67.101-.287.151-.606.151-.957zm5.222-2.577V72.5h-1.975v-7.397h1.852l.123 1.532zm-.273 1.907h-.547c0-.515.062-.989.185-1.422.127-.437.312-.816.553-1.135.246-.323.549-.574.909-.752.36-.177.777-.266 1.251-.266.329 0 .629.05.903.15.273.096.508.249.704.458.2.205.355.474.465.807.109.328.164.722.164 1.182V72.5h-1.969v-4.717c0-.337-.046-.597-.137-.78a.776.776 0 00-.389-.382 1.462 1.462 0 00-.595-.11c-.255 0-.479.053-.67.158-.187.105-.342.25-.465.437a1.951 1.951 0 00-.273.643c-.06.246-.089.51-.089.793zm4.402-.226l-.704.09c0-.484.059-.933.178-1.347a3.41 3.41 0 01.54-1.094c.241-.315.54-.558.895-.732a2.72 2.72 0 011.231-.266c.355 0 .679.052.971.157.291.1.54.262.745.485.209.22.369.506.478.862.114.355.171.79.171 1.305V72.5h-1.975v-4.724c0-.341-.046-.601-.137-.779a.718.718 0 00-.383-.376 1.44 1.44 0 00-.588-.11c-.237 0-.444.049-.622.144a1.23 1.23 0 00-.444.383 1.739 1.739 0 00-.267.574 2.645 2.645 0 00-.089.704zm6.03-6.316h1.968v8.805l-.198 1.695h-1.77V62zm6.651 6.727v.143c0 .551-.059 1.057-.178 1.518a3.47 3.47 0 01-.533 1.196 2.562 2.562 0 01-.902.78c-.356.182-.775.273-1.258.273-.451 0-.843-.091-1.176-.274a2.384 2.384 0 01-.827-.772 4.409 4.409 0 01-.54-1.17 8.935 8.935 0 01-.308-1.462v-.315a8.937 8.937 0 01.308-1.462c.137-.447.317-.837.54-1.17.223-.332.499-.59.827-.772.328-.182.715-.273 1.162-.273.488 0 .912.093 1.272.28.364.182.665.442.902.78.241.332.419.728.533 1.189.119.456.178.96.178 1.51zm-1.969.143v-.143c0-.301-.023-.584-.068-.848a2.236 2.236 0 00-.219-.704 1.233 1.233 0 00-.431-.486c-.177-.118-.408-.177-.69-.177-.269 0-.497.045-.684.136a1.274 1.274 0 00-.465.383c-.118.164-.207.36-.266.588-.059.223-.096.47-.109.738v.896c.013.36.072.679.177.957.11.273.274.49.492.65.224.154.513.232.869.232.278 0 .508-.055.69-.164.182-.11.324-.265.424-.465.105-.2.178-.435.219-.704.041-.274.061-.57.061-.889zm6.597 3.767a4.132 4.132 0 01-1.545-.274 3.39 3.39 0 01-1.162-.772 3.43 3.43 0 01-.725-1.142 3.857 3.857 0 01-.253-1.394v-.274c0-.56.08-1.073.239-1.538a3.63 3.63 0 01.684-1.21 3 3 0 011.094-.786c.428-.187.911-.28 1.449-.28.524 0 .989.086 1.395.26.405.173.745.419 1.018.738.278.319.488.702.629 1.148.141.442.212.934.212 1.477v.82h-5.879v-1.312h3.944v-.15c0-.274-.05-.518-.15-.732a1.168 1.168 0 00-.437-.52c-.196-.127-.447-.191-.752-.191-.26 0-.484.057-.67.17-.187.115-.34.274-.458.48a2.594 2.594 0 00-.26.724 4.585 4.585 0 00-.082.902v.274c0 .296.041.57.123.82.086.25.207.467.362.65.16.182.351.323.574.423.228.1.486.15.773.15.355 0 .686-.068.991-.204.31-.142.577-.354.8-.636l.957 1.039a2.913 2.913 0 01-.636.642 3.387 3.387 0 01-.957.506c-.374.128-.8.192-1.278.192zm6.125-5.92V72.5h-1.969v-7.397h1.853l.116 1.614zm2.228-1.661l-.034 1.825a4.768 4.768 0 00-.348-.034 3.553 3.553 0 00-.363-.02 2.16 2.16 0 00-.724.109c-.201.068-.37.17-.506.307a1.34 1.34 0 00-.301.5c-.064.195-.1.419-.109.67l-.397-.124c0-.478.048-.918.144-1.32.095-.405.234-.758.417-1.059.186-.3.414-.533.683-.697.269-.164.577-.246.923-.246.109 0 .221.009.335.027.114.014.207.034.28.062z" fill="#fff"/><circle cx="289" cy="67.5" r="8" fill="#33AF58"/><circle cx="289" cy="67.5" r="7.5" stroke="#000" stroke-opacity=".4"/><path d="M486.958 70.456a.64.64 0 00-.123-.383c-.082-.114-.235-.218-.458-.314-.219-.1-.536-.192-.95-.274a7.38 7.38 0 01-1.046-.307 3.626 3.626 0 01-.834-.458 1.982 1.982 0 01-.547-.63 1.75 1.75 0 01-.198-.84c0-.31.066-.602.198-.875.137-.273.33-.515.581-.725.255-.214.565-.38.93-.499a3.92 3.92 0 011.244-.184c.642 0 1.194.102 1.654.307.465.206.82.488 1.067.848.25.356.376.761.376 1.217h-1.969c0-.192-.041-.362-.123-.513a.817.817 0 00-.369-.362c-.164-.091-.379-.137-.643-.137-.219 0-.408.039-.567.116a.863.863 0 00-.369.301.717.717 0 00-.124.41c0 .114.023.217.069.308.05.087.13.166.239.24.109.072.251.14.424.204.178.06.396.114.656.164a7.55 7.55 0 011.429.431c.419.173.752.41.998.71.246.297.369.687.369 1.17 0 .328-.073.629-.219.902a2.174 2.174 0 01-.629.718 3.18 3.18 0 01-.984.472 4.6 4.6 0 01-1.278.164c-.688 0-1.272-.123-1.75-.37-.474-.245-.834-.558-1.08-.936-.242-.383-.363-.775-.363-1.176h1.867c.009.27.077.486.205.65.132.164.298.282.499.355.205.073.426.11.663.11.255 0 .467-.035.635-.103a.898.898 0 00.383-.287.694.694 0 00.137-.424zm6.815-5.353v1.395h-4.306v-1.395h4.306zm-3.24-1.825h1.969v6.994c0 .214.027.378.082.492a.491.491 0 00.26.239c.114.04.257.061.43.061.123 0 .233-.004.329-.013.1-.014.184-.028.252-.041l.007 1.449a3.68 3.68 0 01-.547.13 4.052 4.052 0 01-.649.048c-.433 0-.811-.07-1.135-.212a1.562 1.562 0 01-.738-.697c-.173-.32-.26-.739-.26-1.258v-7.192zm6.33 3.439V72.5h-1.968v-7.397h1.852l.116 1.614zm2.229-1.661l-.034 1.825a4.745 4.745 0 00-.349-.034 3.534 3.534 0 00-.362-.02c-.278 0-.52.036-.725.109-.2.068-.369.17-.506.307a1.354 1.354 0 00-.301.5c-.063.195-.1.419-.109.67l-.396-.124c0-.478.047-.918.143-1.32.096-.405.235-.758.417-1.059.187-.3.415-.533.684-.697.269-.164.576-.246.923-.246.109 0 .221.009.335.027.113.014.207.034.28.062zm3.008.047V72.5h-1.976v-7.397h1.976zm-2.099-1.927c0-.287.1-.524.301-.711.2-.187.469-.28.806-.28.333 0 .6.093.8.28a.92.92 0 01.308.71.92.92 0 01-.308.712c-.2.187-.467.28-.8.28-.337 0-.606-.093-.806-.28a.928.928 0 01-.301-.711zm5.653 3.507V72.5h-1.968v-7.397h1.845l.123 1.58zm-.287 1.859h-.533c0-.547.071-1.04.212-1.477.141-.442.339-.818.595-1.127.255-.315.558-.554.909-.718a2.739 2.739 0 011.189-.253c.347 0 .663.05.95.15.288.1.534.26.739.479.209.218.369.508.478.868.114.36.171.8.171 1.32V72.5h-1.982v-4.724c0-.328-.046-.583-.137-.765a.77.77 0 00-.403-.383 1.576 1.576 0 00-.643-.116c-.264 0-.494.052-.69.157-.192.105-.351.25-.479.437a2.07 2.07 0 00-.28.643c-.064.246-.096.51-.096.793zm10.89-3.439h1.784v7.15c0 .675-.15 1.247-.451 1.717a2.782 2.782 0 01-1.244 1.073c-.534.246-1.153.37-1.86.37-.31 0-.638-.042-.984-.124a3.927 3.927 0 01-.984-.383 2.606 2.606 0 01-.78-.656l.868-1.162c.228.264.493.47.793.615.301.15.634.226.998.226.356 0 .657-.066.903-.198.246-.128.435-.317.567-.568.132-.246.198-.544.198-.895v-5.456l.192-1.709zm-4.977 3.788v-.144c0-.565.069-1.078.205-1.538.142-.465.34-.864.595-1.196.26-.333.574-.59.943-.773.37-.182.787-.273 1.251-.273.493 0 .905.09 1.238.273.332.183.606.442.82.78.214.332.381.726.499 1.182.123.451.219.946.287 1.484V69a8.793 8.793 0 01-.307 1.436c-.137.442-.317.829-.54 1.162a2.401 2.401 0 01-.834.765c-.329.183-.721.274-1.176.274-.456 0-.868-.094-1.238-.28a2.768 2.768 0 01-.936-.787 3.757 3.757 0 01-.602-1.19 5.192 5.192 0 01-.205-1.49zm1.969-.144v.144c0 .305.03.59.089.854s.15.5.273.704c.128.2.285.358.472.472.191.11.417.164.677.164.36 0 .654-.075.882-.226.227-.155.398-.366.512-.635.114-.27.18-.58.199-.93v-.896a3.032 3.032 0 00-.117-.772 1.847 1.847 0 00-.287-.595 1.24 1.24 0 00-.478-.383 1.645 1.645 0 00-.698-.136c-.259 0-.485.059-.676.177a1.46 1.46 0 00-.472.472c-.123.2-.216.438-.28.711-.064.269-.096.56-.096.875z" fill="#fff"/><circle cx="535" cy="67.5" r="8" fill="#D6D031"/><circle cx="535" cy="67.5" r="7.5" stroke="#000" stroke-opacity=".4"/><path d="M254 68h35" stroke="#33AF58" stroke-width="2"/></g><defs><linearGradient id="prefix__paint0_linear_899_57" x1="8" y1="50.5" x2="254" y2="50.5" gradientUnits="userSpaceOnUse"><stop stop-color="#2A473D"/><stop offset="1" stop-color="#5E766E"/></linearGradient><linearGradient id="prefix__paint1_linear_899_57" x1="289" y1="50.5" x2="535" y2="50.5" gradientUnits="userSpaceOnUse"><stop stop-color="#47532D"/><stop offset="1" stop-color="#7A7955"/></linearGradient><clipPath id="prefix__clip0_899_57"><path fill="#fff" d="M0 0h543v101H0z"/></clipPath></defs></svg>